<svg data-v-423bf9ae="" xmlns="http://www.w3.org/2000/svg" viewBox="0 0 474 111" class="iconLeft"><!----><!----><!----><g data-v-423bf9ae="" id="fb41ad57-7e83-4024-a8b5-a9f93951ba16" fill="#000000" transform="matrix(6.054490506946714,0,0,6.054490506946714,118.72616359444018,-0.3448889044885277)"><path d="M5.22 8.55Q5.22 8.82 4.96 8.82L4.96 8.82L3.89 8.82Q3.78 8.82 3.78 8.93L3.78 8.93L3.78 11.00Q3.78 11.70 4.28 11.70L4.28 11.70L4.75 11.70Q5.01 11.70 5.01 11.97L5.01 11.97L5.01 13.66Q5.01 13.90 4.76 13.93L4.76 13.93Q4.21 13.97 3.75 13.97L3.75 13.97Q2.48 13.97 1.88 13.58Q1.27 13.19 1.26 12.10L1.26 12.10L1.26 8.93Q1.26 8.82 1.15 8.82L1.15 8.82L0.49 8.82Q0.22 8.82 0.22 8.55L0.22 8.55L0.22 6.99Q0.22 6.72 0.49 6.72L0.49 6.72L1.15 6.72Q1.26 6.72 1.26 6.61L1.26 6.61L1.26 5.03Q1.26 4.76 1.53 4.76L1.53 4.76L3.51 4.76Q3.78 4.76 3.78 5.03L3.78 5.03L3.78 6.61Q3.78 6.72 3.89 6.72L3.89 6.72L4.96 6.72Q5.22 6.72 5.22 6.99L5.22 6.99L5.22 8.55ZM10.11 6.99Q10.11 6.72 10.37 6.72L10.37 6.72L12.47 6.72Q12.74 6.72 12.74 6.99L12.74 6.99L12.74 13.73Q12.74 14 12.47 14L12.47 14L10.37 14Q10.11 14 10.11 13.73L10.11 13.73L10.11 13.40Q10.11 13.33 10.07 13.31Q10.02 13.30 9.98 13.36L9.98 13.36Q9.42 14.11 8.23 14.11L8.23 14.11Q7.17 14.11 6.54 13.42Q5.91 12.73 5.91 11.49L5.91 11.49L5.91 6.99Q5.91 6.72 6.17 6.72L6.17 6.72L8.27 6.72Q8.54 6.72 8.54 6.99L8.54 6.99L8.54 10.92Q8.54 11.34 8.76 11.60Q8.97 11.86 9.32 11.86L9.32 11.86Q9.62 11.86 9.82 11.68Q10.02 11.49 10.09 11.19L10.09 11.19Q10.11 11.13 10.11 11.05L10.11 11.05L10.11 6.99ZM18.42 8.55Q18.42 8.82 18.16 8.82L18.16 8.82L17.09 8.82Q16.98 8.82 16.98 8.93L16.98 8.93L16.98 11.00Q16.98 11.70 17.49 11.70L17.49 11.70L17.95 11.70Q18.21 11.70 18.21 11.97L18.21 11.97L18.21 13.66Q18.21 13.90 17.96 13.93L17.96 13.93Q17.42 13.97 16.95 13.97L16.95 13.97Q15.68 13.97 15.08 13.58Q14.48 13.19 14.46 12.10L14.46 12.10L14.46 8.93Q14.46 8.82 14.35 8.82L14.35 8.82L13.69 8.82Q13.43 8.82 13.43 8.55L13.43 8.55L13.43 6.99Q13.43 6.72 13.69 6.72L13.69 6.72L14.35 6.72Q14.46 6.72 14.46 6.61L14.46 6.61L14.46 5.03Q14.46 4.76 14.73 4.76L14.73 4.76L16.72 4.76Q16.98 4.76 16.98 5.03L16.98 5.03L16.98 6.61Q16.98 6.72 17.09 6.72L17.09 6.72L18.16 6.72Q18.42 6.72 18.42 6.99L18.42 6.99L18.42 8.55ZM22.55 14.11Q21.22 14.11 20.31 13.40Q19.39 12.68 19.10 11.47L19.10 11.47Q18.96 10.96 18.96 10.35L18.96 10.35Q18.96 9.66 19.12 9.10L19.12 9.10Q19.46 7.94 20.36 7.27Q21.27 6.61 22.57 6.61L22.57 6.61Q23.87 6.61 24.76 7.27Q25.65 7.94 25.98 9.07L25.98 9.07Q26.15 9.66 26.15 10.32L26.15 10.32Q26.15 10.85 26.04 11.38L26.04 11.38Q25.75 12.64 24.83 13.38Q23.91 14.11 22.55 14.11L22.55 14.11ZM22.55 11.86Q22.92 11.86 23.14 11.61Q23.37 11.37 23.45 10.96L23.45 10.96Q23.51 10.70 23.51 10.33L23.51 10.33Q23.51 10.01 23.44 9.69L23.44 9.69Q23.23 8.86 22.55 8.86L22.55 8.86Q21.85 8.86 21.67 9.69L21.67 9.69Q21.60 9.93 21.60 10.33L21.60 10.33Q21.60 10.70 21.66 10.96L21.66 10.96Q21.87 11.86 22.55 11.86L22.55 11.86ZM31.01 6.62Q31.44 6.62 31.72 6.78L31.72 6.78Q31.91 6.87 31.86 7.11L31.86 7.11L31.53 9.17Q31.49 9.41 31.22 9.35L31.22 9.35Q31.07 9.31 30.84 9.31L30.84 9.31Q30.65 9.31 30.44 9.35L30.44 9.35Q30.07 9.42 29.81 9.65Q29.55 9.88 29.55 10.28L29.55 10.28L29.55 13.73Q29.55 14 29.29 14L29.29 14L27.19 14Q26.92 14 26.92 13.73L26.92 13.73L26.92 6.99Q26.92 6.72 27.19 6.72L27.19 6.72L29.29 6.72Q29.55 6.72 29.55 6.99L29.55 6.99L29.55 7.18Q29.55 7.25 29.59 7.28Q29.62 7.31 29.67 7.25L29.67 7.25Q30.18 6.62 31.01 6.62L31.01 6.62ZM35.52 6.61Q36.47 6.61 37.27 6.93Q38.07 7.25 38.53 7.81Q38.99 8.37 38.99 9.03L38.99 9.03L38.99 13.73Q38.99 14 38.72 14L38.72 14L36.62 14Q36.36 14 36.36 13.73L36.36 13.73L36.36 13.48Q36.36 13.41 36.32 13.40Q36.29 13.38 36.23 13.44L36.23 13.44Q35.99 13.79 35.57 13.95Q35.15 14.11 34.52 14.11L34.52 14.11Q33.38 14.11 32.72 13.59Q32.06 13.06 32.06 12.05L32.06 12.05Q32.06 10.99 32.81 10.42Q33.56 9.84 34.99 9.84L34.99 9.84L36.25 9.84Q36.36 9.84 36.36 9.73L36.36 9.73L36.36 9.52Q36.36 9.23 36.14 9.04Q35.92 8.86 35.56 8.86L35.56 8.86Q35.32 8.86 35.13 8.94Q34.94 9.02 34.86 9.14L34.86 9.14Q34.78 9.25 34.72 9.30Q34.66 9.34 34.55 9.32L34.55 9.32L32.40 9.04Q32.14 9.02 32.16 8.83L32.16 8.83Q32.21 8.20 32.67 7.70Q33.12 7.20 33.87 6.90Q34.61 6.61 35.52 6.61L35.52 6.61ZM35.34 12.29Q35.78 12.29 36.07 12.05Q36.36 11.82 36.36 11.41L36.36 11.41L36.36 11.27Q36.36 11.16 36.25 11.16L36.25 11.16L35.59 11.16Q34.71 11.16 34.71 11.73L34.71 11.73Q34.71 11.98 34.87 12.14Q35.03 12.29 35.34 12.29L35.34 12.29ZM46.94 8.54Q47.25 9.32 47.25 10.33L47.25 10.33Q47.25 11.20 47.04 11.90L47.04 11.90Q46.73 12.92 45.98 13.52Q45.23 14.11 44.30 14.11L44.30 14.11Q43.26 14.11 42.71 13.41L42.71 13.41Q42.67 13.34 42.63 13.36Q42.59 13.37 42.59 13.44L42.59 13.44L42.59 13.73Q42.59 14 42.32 14L42.32 14L40.22 14Q39.96 14 39.96 13.73L39.96 13.73L39.96 4.47Q39.96 4.20 40.22 4.20L40.22 4.20L42.32 4.20Q42.59 4.20 42.59 4.47L42.59 4.47L42.59 7.14Q42.59 7.21 42.62 7.23Q42.66 7.25 42.71 7.20L42.71 7.20Q43.19 6.61 44.18 6.61L44.18 6.61Q45.18 6.61 45.89 7.15Q46.61 7.69 46.94 8.54L46.94 8.54ZM44.28 11.40Q44.49 10.99 44.49 10.37L44.49 10.37Q44.49 9.72 44.28 9.32L44.28 9.32Q44.04 8.86 43.54 8.86L43.54 8.86Q43.06 8.86 42.81 9.30L42.81 9.30Q42.59 9.70 42.59 10.37L42.59 10.37Q42.59 10.99 42.80 11.38L42.80 11.38Q43.05 11.86 43.54 11.86L43.54 11.86Q44.03 11.86 44.28 11.40L44.28 11.40ZM48.16 14Q47.89 14 47.89 13.73L47.89 13.73L47.89 4.47Q47.89 4.20 48.16 4.20L48.16 4.20L50.26 4.20Q50.53 4.20 50.53 4.47L50.53 4.47L50.53 13.73Q50.53 14 50.26 14L50.26 14L48.16 14ZM55.33 11.89Q55.75 11.89 56.11 11.78Q56.48 11.68 56.71 11.49L56.71 11.49Q56.83 11.41 56.90 11.41L56.90 11.41Q56.99 11.41 57.08 11.52L57.08 11.52L58.03 12.84Q58.10 12.95 58.10 13.01L58.10 13.01Q58.10 13.10 58.00 13.20L58.00 13.20Q57.50 13.66 56.78 13.89Q56.06 14.11 55.23 14.11L55.23 14.11Q54.18 14.11 53.38 13.74Q52.57 13.37 52.07 12.68L52.07 12.68Q51.37 11.70 51.37 10.30L51.37 10.30Q51.37 9.70 51.52 9.13L51.52 9.13Q51.84 7.99 52.79 7.30Q53.73 6.61 54.98 6.61L54.98 6.61Q56.42 6.61 57.32 7.54Q58.21 8.47 58.49 10.08L58.49 10.08Q58.56 10.42 58.58 10.75L58.58 10.75Q58.58 11.02 58.31 11.02L58.31 11.02L54.15 11.02Q54.04 11.02 54.05 11.14L54.05 11.14L54.12 11.33Q54.39 11.89 55.33 11.89L55.33 11.89ZM54.92 8.86Q54.35 8.86 54.12 9.42L54.12 9.42L54.08 9.53L54.07 9.58Q54.07 9.66 54.18 9.66L54.18 9.66L55.69 9.66Q55.80 9.66 55.80 9.58L55.80 9.58Q55.80 9.53 55.78 9.49Q55.76 9.45 55.75 9.42L55.75 9.42Q55.51 8.86 54.92 8.86L54.92 8.86Z"></path></g><!----><g data-v-423bf9ae="" id="5668ec9c-9fb7-471c-a001-c2a28264b8ea" transform="matrix(1.1063852098253038,0,0,1.1063852098253038,-5.614200526725874,0.9161001337911259)" stroke="none" fill="#f97316"><path d="M93.074 6.553H71.257c-1.58 0-2.864 1.293-2.864 2.887s1.284 2.887 2.864 2.887h2.064V86.45h-.018v3.901c0 4.739 3.828 8.595 8.537 8.595 4.705 0 8.533-3.855 8.533-8.595V12.327h2.7c1.58 0 2.864-1.293 2.864-2.887s-1.283-2.887-2.863-2.887zm-12.731 5.774h4.303v38.244h-5.591V12.327h1.288zM61.189 79.048v-.037c1.582 0 2.854-1.278 2.875-2.863h.007v-56.34a2.89 2.89 0 0 0-2.882-2.901H50.285V2.901c0-.984-.494-1.9-1.316-2.437a2.865 2.865 0 0 0-2.745-.21L7.204 17.886c-.818.37-1.341 1.083-1.562 1.887H5.5v56.339l.002.051.002.032c.042 7.687 6.133 13.941 13.709 14.217v9.162l5.76-6.955 5.5 6.955v-9.136h30.716a2.89 2.89 0 0 0 2.882-2.901 2.888 2.888 0 0 0-2.882-2.898v-.002c-1.531 0-2.773-1.254-2.773-2.798a2.784 2.784 0 0 1 2.773-2.791zm-49.421-.037h7.446v5.587a8.477 8.477 0 0 1-7.446-5.587zm41.392 5.628H30.474v-5.628H53.17c-.311.892-.514 1.832-.514 2.828 0 .986.198 1.919.504 2.8zm5.152-11.427H21.837l26.744-12.085a2.9 2.9 0 0 0 1.704-2.646V22.708h8.026v50.504z"></path></g><!----></svg>